<mxfile host="Electron" agent="Mozilla/5.0 (Windows NT 10.0; Win64; x64) AppleWebKit/537.36 (KHTML, like Gecko) draw.io/26.2.2 Chrome/134.0.6998.178 Electron/35.1.2 Safari/537.36" version="26.2.2">
  <diagram name="Page-1" id="PlvNMIzmS4XRTIm1E1g4">
    <mxGraphModel dx="1030" dy="1469" grid="1" gridSize="10" guides="1" tooltips="1" connect="1" arrows="1" fold="1" page="1" pageScale="1" pageWidth="1100" pageHeight="850" math="0" shadow="0">
      <root>
        <mxCell id="0" />
        <mxCell id="1" parent="0" />
        <mxCell id="gfZ1PYG2mXNHvo3DUSCq-30" value="" style="rounded=1;whiteSpace=wrap;html=1;fillColor=none;" parent="1" vertex="1">
          <mxGeometry x="20" y="30" width="480" height="510" as="geometry" />
        </mxCell>
        <mxCell id="gfZ1PYG2mXNHvo3DUSCq-29" value="" style="rounded=1;whiteSpace=wrap;html=1;fillColor=none;" parent="1" vertex="1">
          <mxGeometry x="540" y="40" width="480" height="490" as="geometry" />
        </mxCell>
        <mxCell id="gfZ1PYG2mXNHvo3DUSCq-1" value="crm_cust_info" style="swimlane;fontStyle=0;childLayout=stackLayout;horizontal=1;startSize=30;horizontalStack=0;resizeParent=1;resizeParentMax=0;resizeLast=0;collapsible=1;marginBottom=0;whiteSpace=wrap;html=1;" parent="1" vertex="1">
          <mxGeometry x="330" y="330" width="150" height="90" as="geometry" />
        </mxCell>
        <mxCell id="gfZ1PYG2mXNHvo3DUSCq-2" value="CST_ID" style="text;strokeColor=none;fillColor=none;align=left;verticalAlign=middle;spacingLeft=4;spacingRight=4;overflow=hidden;points=[[0,0.5],[1,0.5]];portConstraint=eastwest;rotatable=0;whiteSpace=wrap;html=1;" parent="gfZ1PYG2mXNHvo3DUSCq-1" vertex="1">
          <mxGeometry y="30" width="150" height="30" as="geometry" />
        </mxCell>
        <mxCell id="gfZ1PYG2mXNHvo3DUSCq-20" value="CST_KEY" style="text;strokeColor=none;fillColor=none;align=left;verticalAlign=middle;spacingLeft=4;spacingRight=4;overflow=hidden;points=[[0,0.5],[1,0.5]];portConstraint=eastwest;rotatable=0;whiteSpace=wrap;html=1;" parent="gfZ1PYG2mXNHvo3DUSCq-1" vertex="1">
          <mxGeometry y="60" width="150" height="30" as="geometry" />
        </mxCell>
        <mxCell id="gfZ1PYG2mXNHvo3DUSCq-5" value="&lt;font style=&quot;font-size: 24px;&quot;&gt;INTEGRATION MODEL&lt;/font&gt;" style="text;html=1;align=center;verticalAlign=middle;whiteSpace=wrap;rounded=0;" parent="1" vertex="1">
          <mxGeometry x="20" y="-110" width="320" height="90" as="geometry" />
        </mxCell>
        <mxCell id="gfZ1PYG2mXNHvo3DUSCq-11" value="CRM_PRD_INFO" style="swimlane;fontStyle=0;childLayout=stackLayout;horizontal=1;startSize=30;horizontalStack=0;resizeParent=1;resizeParentMax=0;resizeLast=0;collapsible=1;marginBottom=0;whiteSpace=wrap;html=1;" parent="1" vertex="1">
          <mxGeometry x="330" y="110" width="150" height="60" as="geometry" />
        </mxCell>
        <mxCell id="gfZ1PYG2mXNHvo3DUSCq-12" value="PRD_KEY" style="text;strokeColor=none;fillColor=none;align=left;verticalAlign=middle;spacingLeft=4;spacingRight=4;overflow=hidden;points=[[0,0.5],[1,0.5]];portConstraint=eastwest;rotatable=0;whiteSpace=wrap;html=1;" parent="gfZ1PYG2mXNHvo3DUSCq-11" vertex="1">
          <mxGeometry y="30" width="150" height="30" as="geometry" />
        </mxCell>
        <mxCell id="gfZ1PYG2mXNHvo3DUSCq-13" value="CRM_SALES_DETAILS" style="swimlane;fontStyle=0;childLayout=stackLayout;horizontal=1;startSize=30;horizontalStack=0;resizeParent=1;resizeParentMax=0;resizeLast=0;collapsible=1;marginBottom=0;whiteSpace=wrap;html=1;" parent="1" vertex="1">
          <mxGeometry x="40" y="250" width="150" height="90" as="geometry" />
        </mxCell>
        <mxCell id="gfZ1PYG2mXNHvo3DUSCq-14" value="PRD_KEY" style="text;strokeColor=none;fillColor=none;align=left;verticalAlign=middle;spacingLeft=4;spacingRight=4;overflow=hidden;points=[[0,0.5],[1,0.5]];portConstraint=eastwest;rotatable=0;whiteSpace=wrap;html=1;" parent="gfZ1PYG2mXNHvo3DUSCq-13" vertex="1">
          <mxGeometry y="30" width="150" height="30" as="geometry" />
        </mxCell>
        <mxCell id="gfZ1PYG2mXNHvo3DUSCq-15" value="CST_ID" style="text;strokeColor=none;fillColor=none;align=left;verticalAlign=middle;spacingLeft=4;spacingRight=4;overflow=hidden;points=[[0,0.5],[1,0.5]];portConstraint=eastwest;rotatable=0;whiteSpace=wrap;html=1;" parent="gfZ1PYG2mXNHvo3DUSCq-13" vertex="1">
          <mxGeometry y="60" width="150" height="30" as="geometry" />
        </mxCell>
        <mxCell id="gfZ1PYG2mXNHvo3DUSCq-17" style="edgeStyle=orthogonalEdgeStyle;rounded=0;orthogonalLoop=1;jettySize=auto;html=1;entryX=0;entryY=0.5;entryDx=0;entryDy=0;" parent="1" source="gfZ1PYG2mXNHvo3DUSCq-14" target="gfZ1PYG2mXNHvo3DUSCq-12" edge="1">
          <mxGeometry relative="1" as="geometry" />
        </mxCell>
        <mxCell id="gfZ1PYG2mXNHvo3DUSCq-18" value="ERP_CUST_AZ12" style="swimlane;fontStyle=0;childLayout=stackLayout;horizontal=1;startSize=30;horizontalStack=0;resizeParent=1;resizeParentMax=0;resizeLast=0;collapsible=1;marginBottom=0;whiteSpace=wrap;html=1;fillColor=default;strokeColor=#FFFF33;" parent="1" vertex="1">
          <mxGeometry x="720" y="280" width="150" height="60" as="geometry" />
        </mxCell>
        <mxCell id="gfZ1PYG2mXNHvo3DUSCq-19" value="CID" style="text;strokeColor=#FFFF33;fillColor=default;align=left;verticalAlign=middle;spacingLeft=4;spacingRight=4;overflow=hidden;points=[[0,0.5],[1,0.5]];portConstraint=eastwest;rotatable=0;whiteSpace=wrap;html=1;" parent="gfZ1PYG2mXNHvo3DUSCq-18" vertex="1">
          <mxGeometry y="30" width="150" height="30" as="geometry" />
        </mxCell>
        <mxCell id="gfZ1PYG2mXNHvo3DUSCq-21" style="edgeStyle=orthogonalEdgeStyle;rounded=0;orthogonalLoop=1;jettySize=auto;html=1;" parent="1" source="gfZ1PYG2mXNHvo3DUSCq-20" target="gfZ1PYG2mXNHvo3DUSCq-19" edge="1">
          <mxGeometry relative="1" as="geometry" />
        </mxCell>
        <mxCell id="gfZ1PYG2mXNHvo3DUSCq-22" style="edgeStyle=orthogonalEdgeStyle;rounded=0;orthogonalLoop=1;jettySize=auto;html=1;entryX=0;entryY=0.5;entryDx=0;entryDy=0;" parent="1" source="gfZ1PYG2mXNHvo3DUSCq-15" target="gfZ1PYG2mXNHvo3DUSCq-2" edge="1">
          <mxGeometry relative="1" as="geometry" />
        </mxCell>
        <mxCell id="gfZ1PYG2mXNHvo3DUSCq-23" value="ERP_LOC_A101" style="swimlane;fontStyle=0;childLayout=stackLayout;horizontal=1;startSize=30;horizontalStack=0;resizeParent=1;resizeParentMax=0;resizeLast=0;collapsible=1;marginBottom=0;whiteSpace=wrap;html=1;fillColor=default;strokeColor=#FFFF33;" parent="1" vertex="1">
          <mxGeometry x="720" y="425" width="150" height="60" as="geometry" />
        </mxCell>
        <mxCell id="gfZ1PYG2mXNHvo3DUSCq-24" value="CID" style="text;strokeColor=#FFFF33;fillColor=default;align=left;verticalAlign=middle;spacingLeft=4;spacingRight=4;overflow=hidden;points=[[0,0.5],[1,0.5]];portConstraint=eastwest;rotatable=0;whiteSpace=wrap;html=1;" parent="gfZ1PYG2mXNHvo3DUSCq-23" vertex="1">
          <mxGeometry y="30" width="150" height="30" as="geometry" />
        </mxCell>
        <mxCell id="gfZ1PYG2mXNHvo3DUSCq-25" style="edgeStyle=orthogonalEdgeStyle;rounded=0;orthogonalLoop=1;jettySize=auto;html=1;entryX=0;entryY=0.5;entryDx=0;entryDy=0;" parent="1" source="gfZ1PYG2mXNHvo3DUSCq-20" target="gfZ1PYG2mXNHvo3DUSCq-24" edge="1">
          <mxGeometry relative="1" as="geometry" />
        </mxCell>
        <mxCell id="gfZ1PYG2mXNHvo3DUSCq-26" value="ERP_PX_CAT_G1V2" style="swimlane;fontStyle=0;childLayout=stackLayout;horizontal=1;startSize=30;horizontalStack=0;resizeParent=1;resizeParentMax=0;resizeLast=0;collapsible=1;marginBottom=0;whiteSpace=wrap;html=1;fillColor=default;strokeColor=#FFFF33;" parent="1" vertex="1">
          <mxGeometry x="720" y="110" width="150" height="60" as="geometry" />
        </mxCell>
        <mxCell id="gfZ1PYG2mXNHvo3DUSCq-27" value="ID" style="text;strokeColor=#FFFF33;fillColor=default;align=left;verticalAlign=middle;spacingLeft=4;spacingRight=4;overflow=hidden;points=[[0,0.5],[1,0.5]];portConstraint=eastwest;rotatable=0;whiteSpace=wrap;html=1;" parent="gfZ1PYG2mXNHvo3DUSCq-26" vertex="1">
          <mxGeometry y="30" width="150" height="30" as="geometry" />
        </mxCell>
        <mxCell id="gfZ1PYG2mXNHvo3DUSCq-28" style="edgeStyle=orthogonalEdgeStyle;rounded=0;orthogonalLoop=1;jettySize=auto;html=1;entryX=0;entryY=0.5;entryDx=0;entryDy=0;" parent="1" source="gfZ1PYG2mXNHvo3DUSCq-12" target="gfZ1PYG2mXNHvo3DUSCq-27" edge="1">
          <mxGeometry relative="1" as="geometry" />
        </mxCell>
        <mxCell id="gfZ1PYG2mXNHvo3DUSCq-31" value="CRM" style="rounded=0;whiteSpace=wrap;html=1;fontSize=23;" parent="1" vertex="1">
          <mxGeometry x="150" width="210" height="60" as="geometry" />
        </mxCell>
        <mxCell id="gfZ1PYG2mXNHvo3DUSCq-32" value="ERP" style="rounded=0;whiteSpace=wrap;html=1;fontSize=23;fillColor=default;strokeColor=#FFFF33;" parent="1" vertex="1">
          <mxGeometry x="680" width="210" height="60" as="geometry" />
        </mxCell>
        <mxCell id="mh3bCMOvz6Ldtc45RnMo-1" value="Transactional Records about Sales &amp;amp; Orders" style="text;html=1;align=center;verticalAlign=middle;whiteSpace=wrap;rounded=0;" vertex="1" parent="1">
          <mxGeometry x="52.5" y="210" width="125" height="30" as="geometry" />
        </mxCell>
        <mxCell id="mh3bCMOvz6Ldtc45RnMo-4" value="Customer Information" style="text;html=1;align=center;verticalAlign=middle;whiteSpace=wrap;rounded=0;" vertex="1" parent="1">
          <mxGeometry x="342.5" y="290" width="125" height="30" as="geometry" />
        </mxCell>
        <mxCell id="mh3bCMOvz6Ldtc45RnMo-7" value="Current &amp;amp; History Product Information" style="text;html=1;align=center;verticalAlign=middle;whiteSpace=wrap;rounded=0;" vertex="1" parent="1">
          <mxGeometry x="342.5" y="70" width="125" height="30" as="geometry" />
        </mxCell>
        <mxCell id="mh3bCMOvz6Ldtc45RnMo-8" value="Product Categories" style="text;html=1;align=center;verticalAlign=middle;whiteSpace=wrap;rounded=0;" vertex="1" parent="1">
          <mxGeometry x="735" y="70" width="120" height="30" as="geometry" />
        </mxCell>
        <mxCell id="mh3bCMOvz6Ldtc45RnMo-9" value="Extra Customer Information (Birthdate)" style="text;html=1;align=center;verticalAlign=middle;whiteSpace=wrap;rounded=0;" vertex="1" parent="1">
          <mxGeometry x="697.5" y="235" width="195" height="30" as="geometry" />
        </mxCell>
        <mxCell id="mh3bCMOvz6Ldtc45RnMo-10" value="Location of Customers (Country)" style="text;html=1;align=center;verticalAlign=middle;whiteSpace=wrap;rounded=0;" vertex="1" parent="1">
          <mxGeometry x="700" y="380" width="195" height="30" as="geometry" />
        </mxCell>
        <mxCell id="mh3bCMOvz6Ldtc45RnMo-11" value="CUSTOMER" style="text;html=1;strokeColor=#d6b656;fillColor=#3399FF;align=center;verticalAlign=middle;whiteSpace=wrap;overflow=hidden;fontSize=13;" vertex="1" parent="1">
          <mxGeometry x="720" y="485" width="150" height="20" as="geometry" />
        </mxCell>
        <mxCell id="mh3bCMOvz6Ldtc45RnMo-12" value="PRODUCT" style="text;html=1;strokeColor=#d6b656;fillColor=#FF6666;align=center;verticalAlign=middle;whiteSpace=wrap;overflow=hidden;fontSize=13;" vertex="1" parent="1">
          <mxGeometry x="720" y="170" width="150" height="20" as="geometry" />
        </mxCell>
        <mxCell id="mh3bCMOvz6Ldtc45RnMo-13" value="PRODUCT" style="text;html=1;strokeColor=#d6b656;fillColor=#FF6666;align=center;verticalAlign=middle;whiteSpace=wrap;overflow=hidden;fontSize=13;" vertex="1" parent="1">
          <mxGeometry x="330" y="170" width="150" height="20" as="geometry" />
        </mxCell>
        <mxCell id="mh3bCMOvz6Ldtc45RnMo-14" value="CUSTOMER" style="text;html=1;strokeColor=#d6b656;fillColor=#3399FF;align=center;verticalAlign=middle;whiteSpace=wrap;overflow=hidden;fontSize=13;" vertex="1" parent="1">
          <mxGeometry x="720" y="340" width="150" height="20" as="geometry" />
        </mxCell>
        <mxCell id="mh3bCMOvz6Ldtc45RnMo-15" value="CUSTOMER" style="text;html=1;strokeColor=#d6b656;fillColor=#3399FF;align=center;verticalAlign=middle;whiteSpace=wrap;overflow=hidden;fontSize=13;" vertex="1" parent="1">
          <mxGeometry x="330" y="420" width="150" height="20" as="geometry" />
        </mxCell>
        <mxCell id="mh3bCMOvz6Ldtc45RnMo-16" value="SALES" style="text;html=1;strokeColor=#d6b656;fillColor=#00FF00;align=center;verticalAlign=middle;whiteSpace=wrap;overflow=hidden;fontSize=13;fontColor=#000000;" vertex="1" parent="1">
          <mxGeometry x="40" y="340" width="150" height="20" as="geometry" />
        </mxCell>
      </root>
    </mxGraphModel>
  </diagram>
</mxfile>
